<?xml version="1.0" encoding="UTF-8"?>
<svg width="470px" height="64px" viewBox="0 0 470 64" version="1.1" xmlns="http://www.w3.org/2000/svg" xmlns:xlink="http://www.w3.org/1999/xlink">
    <!-- Generator: Sketch 47.1 (45422) - http://www.bohemiancoding.com/sketch -->
    <title>Rautalanka</title>
    <desc>Created with Sketch.</desc>
    <defs></defs>
    <g id="Page-1" stroke="none" stroke-width="1" fill="none" fill-rule="evenodd">
        <g id="Tablet" transform="translate(-149.000000, -61.000000)" fill="#E74C3C">
            <path d="M173.536,95.944 C184.456,95.944 185.548,96.112 185.548,80.908 C185.548,64.864 183.364,65.62 173.536,65.62 L170.932,65.62 L170.932,95.944 L173.536,95.944 Z M204.28,113.332 C205.96,119.716 210.412,123.076 212.596,123.244 L212.596,124 L195.88,124 C189.916,124 188.068,120.22 186.052,104.596 C184.96,96.196 174.88,96.7 174.88,96.7 L170.932,96.7 L170.932,114.508 C170.932,122.74 171.268,123.244 174.796,123.244 L174.796,124 L149.68,124 L149.68,123.244 C153.292,123.244 154.048,123.076 154.048,114.508 L154.048,73.012 C154.048,67.804 153.376,65.536 149.68,65.536 L149.68,64.864 L173.536,64.864 C190.252,64.864 205.288,66.88 205.288,80.908 C205.288,93.508 193.696,96.112 185.632,96.112 C195.292,96.112 200.164,98.212 204.28,113.332 Z M238.132,116.44 L238.132,103.504 C231.244,105.016 231.328,110.14 231.328,114.088 C231.328,114.088 231.244,119.632 234.604,119.632 C236.032,119.632 237.208,118.456 238.132,116.44 Z M258.628,118.204 L259.132,118.624 C257.956,122.32 253.588,124.756 248.296,124.756 C248.296,124.756 238.972,124.756 238.216,117.196 C237.124,121.564 232.84,124.756 226.876,124.756 C223.684,124.756 216.376,123.328 216.376,116.188 C216.376,107.788 223.18,106.192 238.132,102.664 L238.132,97.288 C238.132,88.552 233.176,83.848 227.38,86.872 C227.38,86.872 225.532,87.964 228.388,88.972 C229.816,89.476 230.74,90.652 231.412,92.164 C232.672,95.272 231.244,98.632 228.136,99.976 C225.112,101.152 221.668,99.724 220.408,96.7 C219.568,94.516 219.988,91.996 221.416,90.484 C222.424,89.392 223.936,87.88 227.044,86.2 C230.824,84.184 234.94,84.436 234.94,84.436 C245.944,84.436 252.076,91.324 252.076,101.236 L252.076,113.752 C252.076,113.752 252.076,119.8 256.108,119.632 C256.108,119.632 258.208,119.632 258.628,118.204 Z M306.256,116.524 L306.256,84.436 L288.112,86.116 L288.112,86.788 C292.396,87.292 292.06,88.384 292.06,93.508 L292.06,113.92 C291.22,117.532 288.952,118.624 286.6,118.624 C282.316,118.624 281.14,116.356 281.14,111.652 L281.14,84.436 L261.988,86.116 L261.988,86.788 C266.86,87.46 266.692,88.216 266.692,93.256 L266.692,111.904 C266.692,121.984 273.664,124.756 280.3,124.756 C287.272,124.756 291.388,120.556 292.06,116.188 L292.06,123.076 C292.06,123.076 292.144,125.008 294.412,124.672 L310.54,122.488 L310.54,121.816 C307.012,121.396 306.256,120.556 306.256,116.524 Z M338.932,118.624 C334.06,118.624 332.38,116.356 332.38,111.652 L332.38,85.948 L343.216,85.948 L343.216,85.192 L332.38,85.192 L332.38,72.172 L318.268,73.936 L318.268,85.192 L312.976,85.192 L312.976,85.948 L318.268,85.948 L318.268,111.904 C318.268,122.068 325.828,124.756 332.464,124.756 C338.68,124.756 343.552,120.892 344.56,116.44 L344.056,116.104 C343.048,117.28 341.368,118.624 338.932,118.624 Z M370.768,116.44 L370.768,103.504 C363.88,105.016 363.964,110.14 363.964,114.088 C363.964,114.088 363.88,119.632 367.24,119.632 C368.668,119.632 369.844,118.456 370.768,116.44 Z M391.264,118.204 L391.768,118.624 C390.592,122.32 386.224,124.756 380.932,124.756 C380.932,124.756 371.608,124.756 370.852,117.196 C369.76,121.564 365.476,124.756 359.512,124.756 C356.32,124.756 349.012,123.328 349.012,116.188 C349.012,107.788 355.816,106.192 370.768,102.664 L370.768,97.288 C370.768,88.552 365.812,83.848 360.016,86.872 C360.016,86.872 358.168,87.964 361.024,88.972 C362.452,89.476 363.376,90.652 364.048,92.164 C365.308,95.272 363.88,98.632 360.772,99.976 C357.748,101.152 354.304,99.724 353.044,96.7 C352.204,94.516 352.624,91.996 354.052,90.484 C355.06,89.392 356.572,87.88 359.68,86.2 C363.46,84.184 367.576,84.436 367.576,84.436 C378.58,84.436 384.712,91.324 384.712,101.236 L384.712,113.752 C384.712,113.752 384.712,119.8 388.744,119.632 C388.744,119.632 390.844,119.632 391.264,118.204 Z M413.524,114.508 L413.524,61.336 L394.792,64.864 L394.792,65.536 C398.236,66.796 399.244,67.972 399.244,70.912 L399.244,114.508 C399.244,118.876 399.16,122.404 395.968,123.328 L395.968,124 L416.968,124 L416.968,123.328 C413.944,122.488 413.524,119.128 413.524,114.508 Z M444.688,116.44 L444.688,103.504 C437.8,105.016 437.884,110.14 437.884,114.088 C437.884,114.088 437.8,119.632 441.16,119.632 C442.588,119.632 443.764,118.456 444.688,116.44 Z M465.184,118.204 L465.688,118.624 C464.512,122.32 460.144,124.756 454.852,124.756 C454.852,124.756 445.528,124.756 444.772,117.196 C443.68,121.564 439.396,124.756 433.432,124.756 C430.24,124.756 422.932,123.328 422.932,116.188 C422.932,107.788 429.736,106.192 444.688,102.664 L444.688,97.288 C444.688,88.552 439.732,83.848 433.936,86.872 C433.936,86.872 432.088,87.964 434.944,88.972 C436.372,89.476 437.296,90.652 437.968,92.164 C439.228,95.272 437.8,98.632 434.692,99.976 C431.668,101.152 428.224,99.724 426.964,96.7 C426.124,94.516 426.544,91.996 427.972,90.484 C428.98,89.392 430.492,87.88 433.6,86.2 C437.38,84.184 441.496,84.436 441.496,84.436 C452.5,84.436 458.632,91.324 458.632,101.236 L458.632,113.752 C458.632,113.752 458.632,119.8 462.664,119.632 C462.664,119.632 464.764,119.632 465.184,118.204 Z M511.384,114.424 L511.384,97.204 C511.384,87.124 504.328,84.436 497.608,84.436 C493.072,84.436 488.62,88.132 486.436,92.584 L486.436,84.436 L467.788,87.964 L467.788,88.636 C471.232,89.896 472.156,91.072 472.156,94.012 L472.156,114.508 C472.156,118.876 472.072,122.404 468.88,123.328 L468.88,124 L489.88,124 L489.88,123.328 C486.856,122.488 486.436,119.128 486.436,114.508 L486.436,93.76 C487.612,91.996 489.544,90.484 491.392,90.484 C495.424,90.484 497.188,92.752 497.188,97.54 L497.188,114.424 C497.188,118.708 497.02,122.404 493.828,123.328 L493.828,124 L514.828,124 L514.828,123.328 C511.888,122.572 511.384,119.044 511.384,114.424 Z M560.776,116.86 C563.548,120.724 566.74,123.244 570.52,123.244 L570.52,124 L554.98,124 C549.184,124 548.428,122.488 542.8,114.088 C540.28,110.476 537.928,106.78 537.928,106.78 L547.756,96.7 C551.452,92.836 552.46,85.864 547.168,85.864 L547.168,85.192 L570.016,85.192 L570.016,85.864 C565.228,85.864 554.224,91.072 546.664,98.884 L560.776,116.86 Z M536.416,114.508 C536.416,119.128 536.836,122.488 539.86,123.328 L539.86,124 L518.86,124 L518.86,123.328 C522.052,122.404 522.136,118.876 522.136,114.508 L522.136,70.912 C522.136,67.972 521.128,66.796 517.684,65.536 L517.684,64.864 L536.416,61.336 L536.416,114.508 Z M597.064,116.44 L597.064,103.504 C590.176,105.016 590.26,110.14 590.26,114.088 C590.26,114.088 590.176,119.632 593.536,119.632 C594.964,119.632 596.14,118.456 597.064,116.44 Z M617.56,118.204 L618.064,118.624 C616.888,122.32 612.52,124.756 607.228,124.756 C607.228,124.756 597.904,124.756 597.148,117.196 C596.056,121.564 591.772,124.756 585.808,124.756 C582.616,124.756 575.308,123.328 575.308,116.188 C575.308,107.788 582.112,106.192 597.064,102.664 L597.064,97.288 C597.064,88.552 592.108,83.848 586.312,86.872 C586.312,86.872 584.464,87.964 587.32,88.972 C588.748,89.476 589.672,90.652 590.344,92.164 C591.604,95.272 590.176,98.632 587.068,99.976 C584.044,101.152 580.6,99.724 579.34,96.7 C578.5,94.516 578.92,91.996 580.348,90.484 C581.356,89.392 582.868,87.88 585.976,86.2 C589.756,84.184 593.872,84.436 593.872,84.436 C604.876,84.436 611.008,91.324 611.008,101.236 L611.008,113.752 C611.008,113.752 611.008,119.8 615.04,119.632 C615.04,119.632 617.14,119.632 617.56,118.204 Z" id="Rautalanka"></path>
        </g>
    </g>
</svg>