<svg width="466px" height="71px" viewBox="0 0 466 71" version="1.1" xmlns="http://www.w3.org/2000/svg" xmlns:xlink="http://www.w3.org/1999/xlink">
    <title>Rautalanka</title>
    <defs></defs>
    <g id="Page-1" stroke="none" stroke-width="1" fill="none" fill-rule="evenodd">
        <path d="M41.593,42.792 L53.241,69 L36.679,69 L26.76,45.249 L15.658,45.249 L15.658,69 L0.916,69 L0.916,1.66 L26.942,1.66 C44.232,1.751 52.604,9.395 52.604,23.5 C52.604,32.691 48.691,39.425 41.593,42.792 Z M26.851,32.509 C34.404,32.509 37.043,28.323 37.043,23.5 C37.043,18.768 34.495,14.673 26.942,14.673 L15.658,14.673 L15.658,32.509 L26.851,32.509 Z M102.108,69 L88.549,69 C88.367,68.272 88.094,66.907 87.912,65.178 C85.728,67.817 81.542,70.183 75.354,70.183 C65.981,70.183 58.883,64.814 58.883,55.168 C58.883,45.886 65.344,40.972 75.354,40.972 L87.548,40.972 L87.548,39.516 C87.548,35.148 84.363,33.237 79.813,33.237 C75.172,33.237 72.078,35.148 69.985,39.061 L59.884,33.328 C64.434,24.865 72.169,22.044 80.632,22.044 C91.097,22.044 101.198,26.412 101.198,41.973 L101.198,58.171 C101.198,63.176 101.562,67.544 102.108,69 Z M87.639,50.982 L87.639,50.254 L78.812,50.254 C74.99,50.254 73.17,52.165 73.17,54.986 C73.17,58.08 75.263,59.809 79.449,59.809 C81.815,59.809 87.639,59.263 87.639,50.982 Z M156.071,69 C155.434,66.816 155.07,62.539 155.07,60.537 L155.07,23.5 L140.965,23.5 L140.965,48.434 C140.965,57.079 134.322,57.716 132.047,57.716 C129.772,57.716 123.857,57.079 123.857,48.252 L123.857,23.5 L109.752,23.5 L109.752,51.346 C109.752,66.725 120.49,70.183 128.953,70.183 C133.958,70.183 138.508,68.909 141.329,65.269 C141.511,66.816 141.784,68.09 142.148,69 L156.071,69 Z M193.017,23.5 L184.463,23.5 L184.463,9.395 L170.631,9.395 L170.631,23.5 L161.986,23.5 L161.986,35.148 L170.631,35.148 L170.631,69 L184.463,69 L184.463,35.148 L193.017,35.148 L193.017,23.5 Z M240.064,69 L226.505,69 C226.323,68.272 226.05,66.907 225.868,65.178 C223.684,67.817 219.498,70.183 213.31,70.183 C203.937,70.183 196.839,64.814 196.839,55.168 C196.839,45.886 203.3,40.972 213.31,40.972 L225.504,40.972 L225.504,39.516 C225.504,35.148 222.319,33.237 217.769,33.237 C213.128,33.237 210.034,35.148 207.941,39.061 L197.84,33.328 C202.39,24.865 210.125,22.044 218.588,22.044 C229.053,22.044 239.154,26.412 239.154,41.973 L239.154,58.171 C239.154,63.176 239.518,67.544 240.064,69 Z M225.595,50.982 L225.595,50.254 L216.768,50.254 C212.946,50.254 211.126,52.165 211.126,54.986 C211.126,58.08 213.219,59.809 217.405,59.809 C219.771,59.809 225.595,59.263 225.595,50.982 Z M247.708,69 L261.813,69 L261.813,0.386 L247.708,0.386 L247.708,69 Z M311.59,69 L298.031,69 C297.849,68.272 297.576,66.907 297.394,65.178 C295.21,67.817 291.024,70.183 284.836,70.183 C275.463,70.183 268.365,64.814 268.365,55.168 C268.365,45.886 274.826,40.972 284.836,40.972 L297.03,40.972 L297.03,39.516 C297.03,35.148 293.845,33.237 289.295,33.237 C284.654,33.237 281.56,35.148 279.467,39.061 L269.366,33.328 C273.916,24.865 281.651,22.044 290.114,22.044 C300.579,22.044 310.68,26.412 310.68,41.973 L310.68,58.171 C310.68,63.176 311.044,67.544 311.59,69 Z M297.121,50.982 L297.121,50.254 L288.294,50.254 C284.472,50.254 282.652,52.165 282.652,54.986 C282.652,58.08 284.745,59.809 288.931,59.809 C291.297,59.809 297.121,59.263 297.121,50.982 Z M345.442,22.044 C340.255,22.044 335.523,24.046 332.975,27.231 L332.611,23.5 L319.234,23.5 L319.234,69 L333.248,69 L333.248,44.066 C333.248,35.421 339.8,34.784 342.348,34.784 C344.532,34.784 350.356,35.421 350.356,44.248 L350.356,69 L364.37,69 L364.37,40.881 C364.37,29.597 358.273,22.044 345.442,22.044 Z M387.575,69 L387.575,57.625 L390.487,54.44 L401.043,69 L418.242,69 L399.769,44.703 L419.789,23.5 L402.226,23.5 L387.575,39.061 L387.575,0.386 L373.47,0.386 L373.47,69 L387.575,69 Z M465.835,69 L452.276,69 C452.094,68.272 451.821,66.907 451.639,65.178 C449.455,67.817 445.269,70.183 439.081,70.183 C429.708,70.183 422.61,64.814 422.61,55.168 C422.61,45.886 429.071,40.972 439.081,40.972 L451.275,40.972 L451.275,39.516 C451.275,35.148 448.09,33.237 443.54,33.237 C438.899,33.237 435.805,35.148 433.712,39.061 L423.611,33.328 C428.161,24.865 435.896,22.044 444.359,22.044 C454.824,22.044 464.925,26.412 464.925,41.973 L464.925,58.171 C464.925,63.176 465.289,67.544 465.835,69 Z M451.366,50.982 L451.366,50.254 L442.539,50.254 C438.717,50.254 436.897,52.165 436.897,54.986 C436.897,58.08 438.99,59.809 443.176,59.809 C445.542,59.809 451.366,59.263 451.366,50.982 Z" id="Rautalanka" fill="#323232"></path>
    </g>
</svg>